# xmcd
#
# Track frame offsets: 
#        150
#        14330
#        30865
#        55887
#        62352
#
# Disc length: 1075 seconds
#
# Revision: 0
# Processed by: cddbd v1.5.2PL0 Copyright (c) Steve Scherf et al.
# Submitted via: ExactAudioCopy v0.99pb3
#
DISCID=2f043105
DTITLE=The Seal Cub Clubbing Club - Celine
DYEAR=2006
DGENRE=Nomadic
TTITLE0=Celine (radio edit)
TTITLE1=Drums In Der Night
TTITLE2=World Of Fashion
TTITLE3=Threebie
TTITLE4=(I'm Gonna Get That) Rabbit
EXTD=
EXTT0=
EXTT1=
EXTT2=
EXTT3=
EXTT4=
PLAYORDER=
